<?xml version="1.0" encoding="iso-8859-1"?>
<!-- Generator: Adobe Illustrator 19.0.0, SVG Export Plug-In . SVG Version: 6.00 Build 0)  -->
<svg version="1.1" id="Capa_1" xmlns="http://www.w3.org/2000/svg" xmlns:xlink="http://www.w3.org/1999/xlink" x="0px" y="0px"
	 viewBox="0 0 511.999 511.999" style="enable-background:new 0 0 511.999 511.999;" xml:space="preserve">
<path style="fill:#E5E5E5;" d="M452.837,117.965l-15.275-41.969c-3.778-10.379-15.254-15.731-25.634-11.953L13.165,209.18
	c-10.379,3.778-15.731,15.255-11.953,25.634l15.275,41.969c2.298,6.313,8.658,10.148,15.326,9.329
	c22.432-2.756,44.609,10.17,52.669,32.315s-0.619,46.302-19.575,58.61c-5.634,3.658-8.041,10.685-5.744,16.998l15.276,41.969
	c3.778,10.379,15.254,15.731,25.634,11.953L498.835,302.82c10.379-3.778,15.731-15.255,11.953-25.634l-15.275-41.969
	c-2.298-6.313-8.658-10.148-15.326-9.329c-22.432,2.756-44.609-10.17-52.669-32.315s0.619-46.302,19.575-58.61
	C452.727,131.304,455.134,124.278,452.837,117.965z"/>
<path style="opacity:0.1;enable-background:new    ;" d="M510.788,277.185l-15.275-41.969c-2.298-6.313-8.658-10.148-15.326-9.329
	c-3.862,0.474-7.714,0.473-11.49,0.051l11.728,32.222c3.778,10.379-1.574,21.856-11.953,25.634L71.613,428.24l2.826,7.764
	c3.778,10.379,15.254,15.731,25.634,11.953L498.835,302.82C509.214,299.042,514.566,287.565,510.788,277.185z"/>
<path style="fill:#69BFE2;" d="M34.548,241.689l2.459,6.755c1.719,4.722,5.92,8.105,10.903,8.751
	c28.287,3.668,53.597,22.585,64.026,51.239c10.429,28.654,3.2,59.415-16.111,80.407c-3.402,3.699-4.446,8.99-2.728,13.712
	l2.459,6.755c1.679,4.612,6.778,6.99,11.391,5.312l185.107-67.373c12.443-4.529,18.859-18.288,14.33-30.731l-50.687-139.261
	c-4.529-12.443-18.288-18.859-30.731-14.33L39.86,230.298C35.248,231.977,32.87,237.077,34.548,241.689z"/>
<g style="opacity:0.1;">
	<path d="M313.669,259.312c-3.063,0-5.939-1.891-7.048-4.936l-10.799-29.67c-1.417-3.893,0.59-8.196,4.482-9.613
		c3.893-1.414,8.196,0.59,9.613,4.482l10.799,29.67c1.417,3.893-0.59,8.196-4.482,9.613
		C315.387,259.166,314.52,259.312,313.669,259.312z"/>
	<path d="M286.694,185.201c-3.064,0-5.939-1.891-7.048-4.937l-10.799-29.671c-1.417-3.893,0.59-8.196,4.483-9.613
		c3.889-1.414,8.196,0.59,9.613,4.482l10.799,29.671c1.417,3.893-0.59,8.196-4.483,9.613
		C288.413,185.055,287.546,185.201,286.694,185.201z"/>
	<path d="M340.644,333.425c-3.064,0-5.94-1.891-7.048-4.936l-10.799-29.67c-1.417-3.893,0.59-8.196,4.482-9.613
		c3.892-1.414,8.196,0.589,9.613,4.482l10.799,29.67c1.416,3.893-0.59,8.196-4.482,9.613
		C342.362,333.278,341.495,333.425,340.644,333.425z"/>
</g>
<g>
	<path style="fill:#445258;" d="M334.6,155.957c-3.064,0-5.939-1.891-7.048-4.936c-1.417-3.893,0.59-8.196,4.483-9.613
		l43.917-15.984c3.891-1.415,8.195,0.59,9.613,4.482c1.417,3.893-0.59,8.196-4.483,9.613l-43.917,15.984
		C336.318,155.81,335.452,155.957,334.6,155.957z"/>
	<path style="fill:#445258;" d="M346.094,187.537c-3.063,0-5.939-1.891-7.048-4.937c-1.417-3.893,0.59-8.196,4.482-9.613
		l21.959-7.993c3.891-1.416,8.196,0.589,9.613,4.482c1.417,3.893-0.59,8.196-4.482,9.613l-21.958,7.993
		C347.812,187.391,346.946,187.537,346.094,187.537z"/>
</g>
<path style="fill:#FFFFFF;" d="M199.746,228.423l-41.489,17.812c-4.926,2.115-5.033,9.059-0.174,11.325l15.836,7.384l-20.706,44.405
	c-1.876,4.023-0.135,8.806,3.888,10.681l21.125,9.851c4.023,1.876,8.805,0.135,10.682-3.888l20.706-44.405l15.836,7.384
	c4.858,2.266,10.109-2.281,8.563-7.413l-13.024-43.231C218.283,229.348,208.364,224.723,199.746,228.423z"/>
<circle style="fill:#69BFE2;" cx="404.84" cy="273.11" r="23.368"/>
<g>
</g>
<g>
</g>
<g>
</g>
<g>
</g>
<g>
</g>
<g>
</g>
<g>
</g>
<g>
</g>
<g>
</g>
<g>
</g>
<g>
</g>
<g>
</g>
<g>
</g>
<g>
</g>
<g>
</g>
</svg>
